#!OML:ASF H:\Terrain\Walking\May29\JustinRory\Justin.ASF
:FULLY-SPECIFIED
:DEGREES
357
root 10.5421 16.8426 19.6098 -332.678 -43.0443 -14.1034
lowerback 15.1739 -1.00841 0.230586
upperback 4.58832 -1.25175 3.49471
thorax -3.56267 -0.683503 3.77742
lowerneck -16.1912 -7.20578 -12.6059
upperneck 23.2825 -7.98903 4.76145
head 10.9291 -4.23169 2.6323
rclavicle -1.82882e-014 -4.69132e-014
rhumerus -73.4142 -48.7943 37.7815
rradius 29.5591
rwrist -43.0306
rhand 71.8684 48.8499
rfingers 7.12502
rthumb 72.8217 -122.51
lclavicle -1.82882e-014 -4.69132e-014
lhumerus -41.0865 17.3746 60.4141
lradius 40.5714
lwrist -7.68239
lhand 1.69722 35.0829
lfingers 7.12502
lthumb 27.215 63.1398
rfemur -19.1282 0.694434 13.5718
rtibia 61.5773
rfoot 7.36836 2.15693
rtoes -5.81798
lfemur -40.8512 15.0452 -25.5797
ltibia 56.2726
lfoot -32.8827 10.7127
ltoes 9.58842
358
root 10.4929 16.8799 19.7538 -333.941 -42.5756 -12.6108
lowerback 15.0912 -1.18199 -0.574023
upperback 4.50528 -1.5915 3.47857
thorax -3.5621 -0.846747 4.27784
lowerneck -16.055 -7.48879 -13.301
upperneck 23.1707 -8.35454 5.30295
head 10.9599 -4.39472 2.88492
rclavicle 4.17448e-014 2.8625e-014
rhumerus -72.8669 -48.5748 37.4661
rradius 29.6868
rwrist -43.3419
rhand 72.7122 45.3183
rfingers 7.12502
rthumb 72.402 -121.316
lclavicle 4.17448e-014 2.8625e-014
lhumerus -40.7681 16.7031 61.0671
lradius 42.3464
lwrist -7.63714
lhand 0.9313 35.0371
lfingers 7.12502
lthumb 26.4821 63.2066
rfemur -20.3415 0.239511 12.9094
rtibia 63.4375
rfoot 5.7983 2.521
rtoes -8.07336
lfemur -39.2278 14.4587 -26.5073
ltibia 54.9194
lfoot -32.8842 10.3516
ltoes 9.55373
359
root 10.4498 16.9108 19.891 -334.909 -42.0553 -11.3946
lowerback 15.0081 -1.39386 -1.162
upperback 4.36476 -1.95143 3.34964
thorax -3.62193 -1.01677 4.53927
lowerneck -16.1349 -7.75765 -13.204
upperneck 23.3094 -8.74718 5.26947
head 11.0618 -4.56787 2.7907
rclavicle -3.37934e-014 -9.54166e-015
rhumerus -72.6777 -48.4337 37.2948
rradius 30.0018
rwrist -43.7637
rhand 74.9909 45.9519
rfingers 7.12502
rthumb 71.1303 -127.696
lclavicle -3.37934e-014 -9.54166e-015
lhumerus -40.4811 16.1821 61.2544
lradius 44.216
lwrist -7.70992
lhand 0.710488 35.2872
lfingers 7.12502
lthumb 26.2707 63.4884
rfemur -21.5747 -0.327227 12.4667
rtibia 65.094
rfoot 4.14914 2.8036
rtoes -13.7405
lfemur -37.8014 13.9805 -27.2835
ltibia 53.5768
lfoot -32.6559 10.1671
ltoes 8.37793
360
root 10.411 16.9426 20.0233 -335.77 -41.5573 -10.4766
lowerback 15.0926 -1.63792 -1.61808
upperback 4.27207 -2.33929 3.18069
thorax -3.72013 -1.20086 4.69362
lowerneck -16.3869 -7.99649 -12.9889
upperneck 23.6711 -9.13872 5.30642
head 11.2764 -4.72181 2.69783
rclavicle 1.86858e-014 -3.18055e-014
rhumerus -72.667 -48.4894 37.1901
rradius 30.0737
rwrist -43.4826
rhand 76.1218 45.6876
rfingers 7.12502
rthumb 70.4335 -129.987
lclavicle 1.86858e-014 -3.18055e-014
lhumerus -40.2416 15.7233 61.1708
lradius 46.1608
lwrist -7.4886
lhand 0.19975 35.7216
lfingers 7.12502
lthumb 25.7817 63.9947
rfemur -22.6996 -0.683614 12.2087
rtibia 66.5277
rfoot 2.95225 2.43359
rtoes -16.1715
lfemur -36.2627 13.6783 -27.8231
ltibia 52.1056
lfoot -32.5837 9.45756
ltoes 9.07028
361
root 10.3629 16.9927 20.1696 -336.173 -40.6845 -10.1335
lowerback 15.0052 -1.95983 -1.4773
upperback 4.22633 -2.73704 3.18827
thorax -3.69124 -1.3962 4.68717
lowerneck -16.3798 -8.3517 -12.9699
upperneck 23.6774 -9.75931 5.70796
head 11.3624 -4.95206 2.73775
rclavicle 2.22639e-014 4.69132e-014
rhumerus -72.6115 -48.3809 36.9306
rradius 29.9621
rwrist -42.9765
rhand 75.2205 42.9328
rfingers 7.12502
rthumb 70.9921 -125.211
lclavicle 2.22639e-014 4.69132e-014
lhumerus -39.9446 15.0524 61.289
lradius 48.1714
lwrist -6.54394
lhand -1.03556 36.2214
lfingers 7.12502
lthumb 24.5981 64.6609
rfemur -23.8766 -0.881499 12.5063
rtibia 67.7389
rfoot 2.08936 1.19394
rtoes -11.5886
lfemur -34.658 13.2091 -27.7743
ltibia 50.4904
lfoot -32.6101 8.61273
ltoes 10.2823
362
root 10.316 17.0363 20.3131 -337.714 -40.1126 -8.48593
lowerback 15.236 -2.09945 -2.34281
upperback 4.232 -3.05571 2.98758
thorax -3.74464 -1.5476 5.03393
lowerneck -15.9403 -8.72715 -13.1047
upperneck 23.1563 -10.4304 6.25066
head 11.1933 -5.20687 2.85789
rclavicle 3.4191e-014 -6.36111e-015
rhumerus -72.6814 -48.0789 36.9613
rradius 30.0022
rwrist -43.0597
rhand 75.0962 40.4663
rfingers 7.12502
rthumb 71.0671 -122.456
lclavicle 3.4191e-014 -6.36111e-015
lhumerus -39.516 14.0283 61.7471
lradius 50.168
lwrist -5.31255
lhand -1.75002 36.4776
lfingers 7.12502
lthumb 23.9131 65.0087
rfemur -24.7432 -1.40251 11.5608
rtibia 68.8429
rfoot 0.820337 0.387409
rtoes -7.22928
lfemur -32.6051 12.4961 -28.8013
ltibia 48.8259
lfoot -32.595 8.37908
ltoes 10.6754
363
root 10.2727 17.0608 20.45 -340.021 -39.7636 -5.95004
lowerback 15.7062 -2.14836 -3.98428
upperback 4.29716 -3.39519 2.61172
thorax -3.81596 -1.70683 5.65301
lowerneck -15.4979 -8.93637 -13.3399
upperneck 22.5545 -10.7617 6.54477
head 10.9541 -5.34758 2.96049
rclavicle 4.69132e-014 -1.27222e-014
rhumerus -72.7544 -47.9055 37.0503
rradius 30.2354
rwrist -43.4186
rhand 75.8322 41.1639
rfingers 7.12502
rthumb 70.6157 -124.827
lclavicle 4.69132e-014 -1.27222e-014
lhumerus -38.9619 13.3857 62.2196
lradius 51.978
lwrist -4.55819
lhand -1.91964 36.6018
lfingers 7.12502
lthumb 23.7505 65.1541
rfemur -25.2719 -2.20405 9.70954
rtibia 69.7831
rfoot -0.694765 0.249075
rtoes -6.58859
lfemur -30.3289 11.7396 -30.6396
ltibia 47.2307
lfoot -32.5708 8.43385
ltoes 10.1174
364
root 10.2308 17.0957 20.5826 -339.454 -38.7356 -6.62424
lowerback 15.4306 -2.43474 -3.1161
upperback 4.22881 -3.6161 2.87974
thorax -3.75176 -1.81944 5.46759
lowerneck -15.1051 -9.13138 -13.674
upperneck 21.9976 -11.0991 7.054
head 10.766 -5.47671 3.15361
rclavicle -7.87187e-014 1.35174e-014
rhumerus -72.6685 -47.7708 36.6064
rradius 30.5978
rwrist -43.8746
rhand 76.2812 43.517
rfingers 7.12502
rthumb 70.3322 -128.162
lclavicle -7.87187e-014 1.35174e-014
lhumerus -38.4083 13.119 62.5405
lradius 53.7258
lwrist -3.93283
lhand -2.69445 36.7502
lfingers 7.12502
lthumb 23.0072 65.3971
rfemur -26.6812 -2.44719 10.9365
rtibia 70.4885
rfoot -2.13192 -0.693127
rtoes -6.78063
lfemur -29.2556 11.04 -29.8464
ltibia 45.8451
lfoot -32.3354 7.93664
ltoes 11.763
365
root 10.1747 17.1375 20.7131 -338.395 -37.9695 -8.37037
lowerback 15.2337 -2.55455 -1.87331
upperback 4.23031 -3.56576 3.33099
thorax -3.69913 -1.80311 5.22019
lowerneck -14.8542 -9.37058 -14.1023
upperneck 21.7276 -11.5847 7.97491
head 10.7663 -5.63773 3.48002
rclavicle -2.10712e-014 -5.56597e-015
rhumerus -72.819 -47.7667 36.4923
rradius 30.7746
rwrist -43.8126
rhand 76.7036 46.3209
rfingers 7.12502
rthumb 70.0601 -131.863
lclavicle -2.10712e-014 -5.56597e-015
lhumerus -37.9368 12.7577 62.7174
lradius 55.465
lwrist -3.20704
lhand -3.75654 36.8486
lfingers 7.12502
lthumb 21.9877 65.6188
rfemur -28.0975 -1.81018 13.243
rtibia 70.9169
rfoot -3.29723 -2.17805
rtoes -7.97712
lfemur -28.2001 10.7664 -28.0623
ltibia 44.6657
lfoot -32.3302 7.40226
ltoes 13.6467
366
root 10.1632 17.1656 20.8542 -338.245 -38.3366 -7.79902
lowerback 14.8227 -2.46391 -2.18854
upperback 3.94579 -3.49083 3.1009
thorax -3.78211 -1.7535 5.12652
lowerneck -14.5935 -9.52902 -14.3872
upperneck 21.556 -11.9279 8.60604
head 10.7602 -5.75699 3.70363
rclavicle -9.18385e-014 2.06736e-014
rhumerus -73.0178 -47.79 36.7138
rradius 30.6408
rwrist -43.2072
rhand 76.2788 48.4309
rfingers 7.12502
rthumb 70.3337 -133.071
lclavicle -9.18385e-014 2.06736e-014
lhumerus -37.4666 12.5221 62.7371
lradius 57.1258
lwrist -2.75892
lhand -3.76927 37.0513
lfingers 7.12502
lthumb 21.9755 65.823
rfemur -30.4418 -1.39658 12.9127
rtibia 71.4142
rfoot -4.60356 -2.45844
rtoes -8.97678
lfemur -27.7766 10.4406 -28.8276
ltibia 43.6135
lfoot -32.4789 7.93213
ltoes 12.1748
367
root 10.1221 17.1945 20.9831 -338.01 -37.5053 -8.53537
lowerback 14.9861 -2.66376 -1.37776
upperback 3.92571 -3.62257 3.35348
thorax -3.91266 -1.82009 4.96909
lowerneck -14.4451 -9.98967 -14.6422
upperneck 21.4687 -12.5487 8.68314
head 10.8068 -6.05341 3.66754
rclavicle -5.36719e-014 -3.02153e-014
rhumerus -72.6854 -47.5851 36.3149
rradius 30.6364
rwrist -43.4027
rhand 76.562 49.2656
rfingers 7.12502
rthumb 70.1518 -134.51
lclavicle -5.36719e-014 -3.02153e-014
lhumerus -36.9855 12.188 62.87
lradius 58.8451
lwrist -1.90942
lhand -3.81714 37.228
lfingers 7.12502
lthumb 21.9296 66.0051
rfemur -31.3856 -1.26837 14.0954
rtibia 71.6062
rfoot -6.44266 -3.10498
rtoes -7.66098
lfemur -26.3895 9.80149 -27.9491
ltibia 42.4171
lfoot -32.4047 8.20092
ltoes 10.7243
368
root 10.0887 17.1886 21.1067 -338.187 -37.1612 -8.48429
lowerback 15.0334 -2.67277 -1.29372
upperback 3.9896 -3.6203 3.43428
thorax -3.87058 -1.82215 5.00741
lowerneck -14.5017 -10.5739 -14.7465
upperneck 21.392 -13.3361 8.70492
head 10.9041 -6.41115 3.5479
rclavicle -4.57205e-014 -3.65764e-014
rhumerus -72.3691 -47.389 35.8367
rradius 30.8402
rwrist -44.2166
rhand 78.026 48.9538
rfingers 7.12502
rthumb 69.1772 -137.147
lclavicle -4.57205e-014 -3.65764e-014
lhumerus -36.3656 11.7683 63.3498
lradius 60.6404
lwrist -0.645473
lhand -5.12948 36.8913
lfingers 7.12502
lthumb 20.669 65.8107
rfemur -32.8051 -0.836968 14.4686
rtibia 71.9868
rfoot -7.86604 -3.68673
rtoes -6.76296
lfemur -25.0908 9.34281 -27.9076
ltibia 41.0756
lfoot -32.1196 8.0412
ltoes 11.5386
369
root 10.0351 17.1883 21.2179 -339.979 -36.7982 -5.37488
lowerback 14.9964 -2.8027 -3.68715
upperback 3.92459 -4.16133 2.97335
thorax -3.72697 -2.07734 5.96626
lowerneck -14.2705 -10.7932 -14.7736
upperneck 21.028 -13.7552 9.14281
head 10.8192 -6.56478 3.64417
rclavicle -5.36719e-014 1.35174e-014
rhumerus -72.2383 -47.5447 35.5867
rradius 30.9358
rwrist -44.4635
rhand 79.5078 47.078
rfingers 7.12502
rthumb 68.1375 -137.974
lclavicle -5.36719e-014 1.35174e-014
lhumerus -35.882 11.9798 63.693
lradius 62.5658
lwrist -0.170342
lhand -5.39877 36.6965
lfingers 7.12502
lthumb 20.4102 65.6439
rfemur -34.3531 -1.79136 12.1054
rtibia 72.4298
rfoot -9.24562 -3.71676
rtoes -6.84933
lfemur -23.7433 8.17014 -30.4905
ltibia 39.622
lfoot -31.883 7.8172
ltoes 12.7023
